<svg xmlns="http://www.w3.org/2000/svg" viewBox="0 0 800 500" width="100%" height="100%">
  <defs>
    <linearGradient id="bg-web" x1="0%" y1="0%" x2="100%" y2="100%">
      <stop offset="0%" stop-color="#08101f" />
      <stop offset="100%" stop-color="#0f172a" />
    </linearGradient>
    <linearGradient id="web-glow" x1="0%" y1="0%" x2="100%" y2="0%">
      <stop offset="0%" stop-color="#38bdf8" />
      <stop offset="100%" stop-color="#60a5fa" />
    </linearGradient>
  </defs>
  <rect width="100%" height="100%" fill="url(#bg-web)" />
  <rect x="120" y="120" width="560" height="260" rx="28" fill="#111827" stroke="#334155" stroke-width="4" />
  <rect x="160" y="160" width="180" height="18" rx="9" fill="#0f172a" />
  <rect x="160" y="200" width="520" height="18" rx="9" fill="#0f172a" />
  <rect x="160" y="240" width="520" height="18" rx="9" fill="#0f172a" />
  <rect x="160" y="280" width="520" height="18" rx="9" fill="#0f172a" />
  <rect x="160" y="320" width="520" height="18" rx="9" fill="#0f172a" />
  <rect x="200" y="140" width="440" height="18" rx="9" fill="#38bdf8" />
  <circle cx="500" cy="360" r="22" fill="#22d3ee" />
  <circle cx="540" cy="360" r="10" fill="#ffffff" />
  <path d="M 170 160 L 170 380" stroke="#38bdf8" stroke-width="6" />
  <path d="M 170 380 H 360" stroke="#22d3ee" stroke-width="6" />
  <path d="M 520 380 H 620" stroke="#38bdf8" stroke-width="6" />
  <text x="40" y="90" fill="#e2e8f0" font-family="Inter, sans-serif" font-size="24" font-weight="700">Personal Portfolio &amp; Web Development</text>
  <text x="40" y="120" fill="#94a3b8" font-family="Inter, sans-serif" font-size="14">Responsive website with clean HTML, CSS and JavaScript for portfolio showcase.</text>
</svg>
